<svg xmlns="http://www.w3.org/2000/svg" width="482" height="243" viewBox="0 0 482 243">
    <g fill="#000" fill-rule="nonzero">
        <path d="M396.316 1.728c-37.068 0-67.668 27.802-72.102 63.684H85.812a2.918 2.918 0 0 0-2.908 2.91v14.921c0 .218.146.364.364.364h57.928c-4.36 26.201-27.474 46.144-55.094 45.489-28.928-.728-52.477-24.31-53.204-53.277-.727-30.713 23.985-55.896 54.513-55.896 14.9 0 28.419 6.041 38.304 15.721a.351.351 0 0 0 .509 0l12.356-12.373a.352.352 0 0 0 0-.51C125.06 9.444 106.454 1.365 85.957 1.729c-38.959.8-70.649 32.679-71.23 71.762-.582 40.685 32.199 73.8 72.684 73.8 37.068 0 67.668-27.802 72.102-63.683H324.14c4.507 35.881 35.107 63.684 72.175 63.684 40.122 0 72.684-32.606 72.684-72.782 0-40.175-32.562-72.781-72.684-72.781zm0 127.368c-27.038 0-49.425-19.651-53.713-45.489h55.385a2.918 2.918 0 0 0 2.907-2.911v-14.92c0-.219-.145-.364-.363-.364H342.53c4.361-25.838 26.748-45.489 53.786-45.489 30.091 0 54.513 24.455 54.513 54.586 0 30.132-24.422 54.587-54.513 54.587z"/>
        <path d="M302.554 25.964H178.63c-.218 0-.364-.145-.364-.364V10.68a2.918 2.918 0 0 1 2.908-2.911h123.925c.218 0 .364.145.364.364v14.92a2.918 2.918 0 0 1-2.908 2.911zM302.554 141.25H178.63c-.218 0-.364-.146-.364-.364v-14.92a2.918 2.918 0 0 1 2.908-2.911h123.925c.218 0 .364.145.364.364v14.92a2.918 2.918 0 0 1-2.908 2.911z"/>
        <g>
            <path d="M338.154 225.575c-1.886 3.173-5.513 5.287-9.648 5.146-5.441-.211-9.866-4.582-10.084-9.798-.29-5.921 4.57-10.785 10.592-10.785 3.917 0 7.327 2.044 9.213 5.146.073.14.29.211.363.07l9.068-5.075c.145-.07.218-.282.145-.423-3.99-6.626-11.535-10.997-20.168-10.433-10.809.634-19.587 9.164-20.24 19.667-.798 12.266 9.213 22.417 21.619 22.417 7.98 0 15.017-4.23 18.789-10.504.073-.14 0-.282-.145-.423l-9.068-5.075c-.145-.07-.363 0-.436.07zM457.275 230.721H440.08v-30.1c0-.211-.145-.352-.363-.352h-10.736c-.218 0-.363.14-.363.352v39.546c0 .212.145.353.363.353h28.293c.217 0 .362-.141.362-.353v-9.093c0-.141-.217-.353-.362-.353zM22.435 240.167v-39.546c0-.211.145-.352.363-.352h17.411c5.296 0 9.503 1.269 12.55 3.736 3.12 2.538 4.643 5.992 4.643 10.503 0 4.582-1.668 8.177-4.933 10.715-3.264 2.538-7.545 3.807-12.913 3.807h-5.658v11.137c0 .212-.146.353-.363.353H22.798c-.218 0-.363-.141-.363-.353zm11.463-19.878h5.44c2.032 0 3.628-.494 4.788-1.41 1.161-.987 1.742-2.256 1.742-3.877 0-1.692-.58-3.032-1.742-3.948-1.16-.916-2.756-1.34-4.86-1.34h-5.368v10.575zM77.86 240.167v-39.546c0-.211.145-.352.363-.352h19.225c6.02 0 10.519 1.41 13.493 4.3 2.467 2.397 3.7 5.569 3.7 9.516 0 5.922-2.83 10.01-8.488 12.336l9.504 13.464c.145.212 0 .564-.29.564h-12.333c-.145 0-.218-.07-.29-.14l-8.27-12.055h-5.006v11.843c0 .211-.146.352-.363.352H78.223c-.218.07-.363-.07-.363-.282zm11.462-20.583h7.545c1.959 0 3.41-.423 4.498-1.27 1.088-.845 1.596-2.044 1.596-3.594 0-1.551-.508-2.75-1.596-3.595-1.088-.776-2.612-1.199-4.57-1.199H89.25v9.658h.072zM206.339 240.167v-30.1h-13.204c-.217 0-.362-.14-.362-.352v-9.094c0-.211.145-.352.362-.352h37.942c.218 0 .363.14.363.352v9.094c0 .211-.145.352-.363.352h-13.203v30.1c0 .212-.146.353-.363.353h-10.737c-.29 0-.435-.141-.435-.353zM156.355 199.352c-11.97 0-21.691 9.446-21.691 21.078 0 11.63 9.72 21.077 21.69 21.077s21.692-9.446 21.692-21.077c0-11.632-9.721-21.078-21.691-21.078zm0 31.37c-5.876 0-10.592-4.653-10.592-10.292 0-5.71 4.788-10.292 10.592-10.292 5.876 0 10.591 4.652 10.591 10.292 0 5.71-4.715 10.291-10.591 10.291zM267.858 199.352c-11.97 0-21.692 9.446-21.692 21.078 0 11.63 9.722 21.077 21.692 21.077s21.69-9.446 21.69-21.077c0-11.632-9.72-21.078-21.69-21.078zm0 31.37c-5.877 0-10.592-4.653-10.592-10.292 0-5.71 4.788-10.292 10.592-10.292 5.876 0 10.591 4.652 10.591 10.292 0 5.71-4.715 10.291-10.591 10.291zM385.89 199.352c-11.97 0-21.692 9.446-21.692 21.078 0 11.63 9.721 21.077 21.692 21.077 11.97 0 21.69-9.446 21.69-21.077 0-11.632-9.72-21.078-21.69-21.078zm0 31.37c-5.877 0-10.592-4.653-10.592-10.292 0-5.71 4.788-10.292 10.592-10.292 5.876 0 10.591 4.652 10.591 10.292 0 5.71-4.715 10.291-10.591 10.291z"/>
        </g>
    </g>
</svg>
